<svg id="Layer_1" xmlns="http://www.w3.org/2000/svg" viewBox="0 0 190 40"><style>.st0{fill:#016d39}.st1{fill:#2ecc6e}</style><path class="st0" d="M49.5 29.2l-2-4.2h-2v4.2h-5.4V12.9H48c2.2 0 3.9.5 5.1 1.5 1.2 1 1.8 2.5 1.8 4.3 0 1.2-.2 2.2-.7 3.1-.4.9-1.1 1.6-1.9 2.1l3.2 5.3h-6zm-4-8.3H48c.6 0 1-.2 1.4-.5.3-.3.5-.8.5-1.5 0-.6-.2-1.1-.5-1.4-.4-.3-.8-.5-1.4-.5h-2.5v3.9zm21.1-3.7c1 .6 1.8 1.4 2.4 2.5.5 1.1.8 2.3.8 3.7v.7h-8.3c.2.5.4.9.8 1.1.4.3.8.4 1.3.4.9 0 1.8-.4 2.6-1.1l2.7 2.7c-.7.8-1.5 1.3-2.5 1.7-1 .4-2.1.6-3.3.6-1.4 0-2.7-.3-3.7-.8s-1.8-1.3-2.4-2.3c-.6-1-.8-2.1-.8-3.4 0-1.3.3-2.5.8-3.5.6-1 1.4-1.8 2.4-2.3 1-.5 2.2-.8 3.6-.8 1.3-.1 2.5.2 3.6.8zm-2.5 3.1c-.3-.3-.7-.5-1.1-.5-.4 0-.8.2-1.1.5-.3.3-.5.8-.6 1.3h3.2c0-.5-.1-.9-.4-1.3zm13.3.3c-.5 0-.9.2-1.2.6-.3.4-.5 1-.5 1.7s.2 1.3.5 1.7c.3.4.7.6 1.2.6.8 0 1.3-.5 1.6-1.4l4.2 2c-.5 1.1-1.2 2-2.3 2.6-1.1.6-2.3.9-3.8.9-1.3 0-2.5-.3-3.5-.8s-1.8-1.3-2.3-2.3c-.6-1-.8-2.1-.8-3.4 0-1.3.3-2.5.8-3.5.6-1 1.3-1.8 2.4-2.3 1-.5 2.2-.8 3.6-.8s2.6.3 3.7 1c1.1.6 1.8 1.5 2.4 2.7L79 21.8c-.3-.8-.9-1.2-1.6-1.2z"/><path class="st0" d="M90.5 33.1c-.9.6-2.1.9-3.4.9-.8 0-1.6-.1-2.3-.4-.7-.2-1.4-.6-2.1-1.1l2.2-3.4c.5.5 1.1.7 1.7.7.6 0 1-.2 1.3-.7l.2-.3-5.3-12.3h5.4l2.5 7.3 2.1-7.3H98l-5.2 13.6c-.7 1.4-1.4 2.3-2.3 3zm14.1-12.5c-.5 0-.9.2-1.2.6-.3.4-.5 1-.5 1.7s.2 1.3.5 1.7c.3.4.7.6 1.2.6.8 0 1.3-.5 1.6-1.4l4.2 2c-.5 1.1-1.2 2-2.3 2.6-1.1.6-2.3.9-3.8.9-1.3 0-2.5-.3-3.5-.8s-1.8-1.3-2.3-2.3c-.6-1-.8-2.1-.8-3.4 0-1.3.3-2.5.8-3.5.6-1 1.3-1.8 2.4-2.3 1-.5 2.2-.8 3.6-.8s2.6.3 3.7 1c1.1.6 1.8 1.5 2.4 2.7l-4.2 1.8c-.5-.7-1-1.1-1.8-1.1zm7.2-8.6h5.2v17.3h-5.2V12zm17.4 5.2c1 .6 1.8 1.4 2.4 2.5.5 1.1.8 2.3.8 3.7v.7h-8.3c.2.5.4.9.8 1.1.4.3.8.4 1.3.4.9 0 1.8-.4 2.6-1.1l2.7 2.7c-.7.8-1.5 1.3-2.5 1.7-1 .4-2.1.6-3.3.6-1.4 0-2.7-.3-3.7-.8s-1.8-1.3-2.4-2.3c-.6-1-.8-2.1-.8-3.4 0-1.3.3-2.5.8-3.5.6-1 1.4-1.8 2.4-2.3 1-.5 2.2-.8 3.6-.8 1.4-.1 2.6.2 3.6.8zm-2.5 3.1c-.3-.3-.7-.5-1.1-.5-.4 0-.8.2-1.1.5-.3.3-.5.8-.6 1.3h3.2c0-.5-.1-.9-.4-1.3z"/><path class="st1" d="M138.5 12.9h5.7l4.1 8.5 4-8.5h5.7v16.3h-4.7v-8.9l-3.3 7.4h-3.5l-3.3-7.4v8.9h-4.7V12.9zm32.5 4.6c1 .8 1.5 2 1.5 3.5v8.2h-5.1v-1.4c-.8 1.1-2 1.6-3.6 1.6-1.3 0-2.4-.4-3.1-1.1-.8-.7-1.1-1.7-1.1-2.9 0-1.3.4-2.2 1.3-2.9.8-.7 2.1-1 3.7-1h2.9c0-.5-.2-.8-.5-1-.3-.2-.8-.4-1.5-.4-.5 0-1.1.1-1.8.2s-1.4.3-2.1.6l-1.2-3.5c1.1-.4 2.2-.7 3.2-.9 1.1-.2 2.1-.3 3-.3 2 .1 3.4.5 4.4 1.3zm-4.3 8.4c.3-.2.6-.4.8-.7V24h-1.8c-.7 0-1.1.3-1.1 1 0 .4.1.6.3.8.2.2.5.3.9.3.2.1.5 0 .9-.2zm19.8-8.8c.9.5 1.6 1.3 2 2.3.5 1 .7 2.2.7 3.5 0 1.3-.2 2.4-.7 3.4-.5 1-1.1 1.7-2 2.3-.9.5-1.9.8-3 .8-.7 0-1.3-.1-1.9-.4-.6-.3-1.1-.6-1.5-1.1v5.8h-5.2V16.5h5.2v1.3c.8-1 1.9-1.5 3.2-1.5 1.2 0 2.3.3 3.2.8zm-3.1 7.5c.3-.5.5-1 .5-1.8 0-.7-.2-1.3-.5-1.8s-.8-.7-1.4-.7c-.6 0-1 .2-1.4.7-.3.5-.5 1-.5 1.8 0 .7.2 1.3.5 1.8s.8.7 1.4.7c.6 0 1.1-.2 1.4-.7zM17.4 2c-5.1 0-9.3 4.2-9.3 9.3 0 2.2.8 4.2 2 5.8l7.3 8.1 7.3-8.1c1.3-1.6 2-3.6 2-5.8 0-5.1-4.2-9.3-9.3-9.3zm0 12.2c-1.6 0-2.9-1.3-2.9-2.9s1.3-2.9 2.9-2.9c1.6 0 2.9 1.3 2.9 2.9s-1.3 2.9-2.9 2.9zM31.5 23c-.4-2.4-1.9-4.4-4.2-5.9l-3.7 4.1c.5.5.9 1.2 1.2 1.8h-2.1l2 2.5 3.5 4.3 3-3.7 2.6-3.1h-2.3z"/><path class="st0" d="M6.4 18.5l-3 3.7-2.6 3.2h2.4c.8 5 6.8 8.7 13.9 8.7 3.7 0 7.2-1 9.9-2.9l-3.5-4.3c-1.4 1.6-3.8 2.5-6.4 2.5-1.3 0-2.6-.2-3.8-.7-1.7-.7-3-1.9-3.4-3.3H12l-2-2.5-3.6-4.4"/></svg>